<svg width="34" height="22" viewBox="0 0 34 22" fill="none" xmlns="http://www.w3.org/2000/svg">
<path d="M32.9222 21.6344C32.6357 21.6344 32.3729 21.4704 32.2602 21.2014C32.1777 21.0062 30.1129 16.3748 22.393 15.4575C20.785 15.2623 18.8591 15.1622 16.5202 15.1446V20.9173C16.5202 21.1839 16.3763 21.4254 16.1398 21.553C15.9045 21.6757 15.623 21.6581 15.404 21.5117L0.572492 11.5281C0.37227 11.3942 0.254639 11.169 0.254639 10.9325C0.254639 10.6934 0.37227 10.4757 0.572492 10.3355L15.4102 0.350679C15.6292 0.199261 15.9083 0.18925 16.1461 0.314389C16.3838 0.442031 16.5252 0.68355 16.5252 0.942588V6.31481C19.7513 6.73528 33.6368 9.23056 33.6368 20.9236C33.6368 21.2627 33.3978 21.5593 33.0624 21.6268C33.0161 21.6344 32.9673 21.6344 32.9222 21.6344Z" fill="white"/>
</svg>
